<?xml version="1.0" standalone="no"?>
<!DOCTYPE svg PUBLIC "-//W3C//DTD SVG 20010904//EN"
 "http://www.w3.org/TR/2001/REC-SVG-20010904/DTD/svg10.dtd">
<svg version="1.0" xmlns="http://www.w3.org/2000/svg"
 width="612.000000pt" height="612.000000pt" viewBox="0 0 612.000000 612.000000"
 preserveAspectRatio="xMidYMid meet">
<metadata>
Created by potrace 1.11, written by Peter Selinger 2001-2013
</metadata>
<g transform="translate(0.000000,612.000000) scale(0.100000,-0.100000)"
fill="#000000" stroke="none">
<path d="M2795 6009 c-607 -57 -1180 -296 -1645 -687 -116 -98 -312 -297 -404
-412 -322 -403 -537 -894 -618 -1411 -19 -124 -22 -185 -22 -434 -1 -305 5
-376 51 -605 89 -447 298 -893 589 -1259 94 -117 338 -362 454 -455 318 -254
719 -456 1103 -556 779 -202 1601 -87 2277 320 232 139 416 286 616 492 451
465 733 1062 809 1714 20 171 20 509 -1 684 -114 986 -717 1851 -1603 2299
-306 154 -609 249 -952 296 -138 19 -516 27 -654 14z m589 -2514 c418 -636
763 -1152 767 -1148 3 5 93 453 199 998 105 545 194 1000 197 1013 l5 22 -206
0 c-181 0 -206 2 -206 16 0 9 10 69 22 135 l22 119 573 0 c315 0 573 -4 573
-9 0 -7 -32 -177 -46 -238 -4 -23 -5 -23 -213 -23 -190 0 -209 -2 -213 -17 -3
-10 -135 -687 -294 -1506 l-289 -1487 -290 2 -289 3 -770 1179 c-601 920 -772
1174 -778 1160 -4 -11 -96 -471 -203 -1024 -108 -553 -199 -1015 -202 -1028
l-5 -22 206 0 c241 0 218 19 184 -157 l-22 -113 -573 0 c-315 0 -573 1 -573 3
0 2 11 61 25 132 14 72 25 131 25 133 0 1 94 2 209 2 208 0 209 0 214 23 11
42 527 2694 527 2705 0 9 -56 12 -205 12 -172 0 -205 2 -205 14 0 17 38 224
45 244 3 9 116 12 517 12 l513 -1 759 -1154z"/>
</g>
</svg>
